<mxfile host="app.diagrams.net" modified="2023-09-05T14:37:14.511Z" agent="Mozilla/5.0 (Windows NT 10.0; Win64; x64) AppleWebKit/537.36 (KHTML, like Gecko) Chrome/116.0.0.0 Safari/537.36" etag="OpcP2lqZSNhKQvPOFODd" version="21.7.2" type="device">
  <diagram name="Page-1" id="XYO5vYSn_DiX1Q8LKnJ9">
    <mxGraphModel dx="1434" dy="1927" grid="1" gridSize="10" guides="1" tooltips="1" connect="1" arrows="1" fold="1" page="1" pageScale="1" pageWidth="827" pageHeight="1169" math="0" shadow="0">
      <root>
        <mxCell id="0" />
        <mxCell id="1" parent="0" />
        <mxCell id="BG8KLU9dc23N2NzaAGb--1" value="" style="whiteSpace=wrap;html=1;aspect=fixed;" vertex="1" parent="1">
          <mxGeometry x="100" y="-10" width="857" height="857" as="geometry" />
        </mxCell>
        <mxCell id="BG8KLU9dc23N2NzaAGb--2" value="User" style="shape=umlActor;verticalLabelPosition=bottom;verticalAlign=top;html=1;outlineConnect=0;" vertex="1" parent="1">
          <mxGeometry x="30" y="500" width="30" height="60" as="geometry" />
        </mxCell>
        <mxCell id="BG8KLU9dc23N2NzaAGb--24" value="Create&lt;br&gt;CarRide" style="ellipse;whiteSpace=wrap;html=1;" vertex="1" parent="1">
          <mxGeometry x="470" y="480" width="80" height="50" as="geometry" />
        </mxCell>
        <mxCell id="BG8KLU9dc23N2NzaAGb--25" value="Register&lt;br&gt;CarRide" style="ellipse;whiteSpace=wrap;html=1;" vertex="1" parent="1">
          <mxGeometry x="374" y="350" width="80" height="50" as="geometry" />
        </mxCell>
        <mxCell id="BG8KLU9dc23N2NzaAGb--26" value="Edit&lt;br&gt;CarRide" style="ellipse;whiteSpace=wrap;html=1;" vertex="1" parent="1">
          <mxGeometry x="470" y="430" width="80" height="45" as="geometry" />
        </mxCell>
        <mxCell id="BG8KLU9dc23N2NzaAGb--27" value="Delete&lt;br&gt;CarRIde" style="ellipse;whiteSpace=wrap;html=1;" vertex="1" parent="1">
          <mxGeometry x="470" y="537.5" width="80" height="50" as="geometry" />
        </mxCell>
        <mxCell id="BG8KLU9dc23N2NzaAGb--28" value="Comment&lt;br&gt;CarRIde" style="ellipse;whiteSpace=wrap;html=1;" vertex="1" parent="1">
          <mxGeometry x="580" y="350" width="80" height="50" as="geometry" />
        </mxCell>
        <mxCell id="BG8KLU9dc23N2NzaAGb--30" value="Search&lt;br&gt;CarRide" style="ellipse;whiteSpace=wrap;html=1;" vertex="1" parent="1">
          <mxGeometry x="180" y="340" width="80" height="50" as="geometry" />
        </mxCell>
        <mxCell id="BG8KLU9dc23N2NzaAGb--32" value="Login" style="ellipse;whiteSpace=wrap;html=1;" vertex="1" parent="1">
          <mxGeometry x="200" y="540" width="60" height="45" as="geometry" />
        </mxCell>
        <mxCell id="BG8KLU9dc23N2NzaAGb--35" value="" style="endArrow=none;html=1;rounded=0;entryX=0;entryY=0.5;entryDx=0;entryDy=0;" edge="1" parent="1" source="BG8KLU9dc23N2NzaAGb--2" target="BG8KLU9dc23N2NzaAGb--32">
          <mxGeometry width="50" height="50" relative="1" as="geometry">
            <mxPoint x="110" y="560" as="sourcePoint" />
            <mxPoint x="160" y="510" as="targetPoint" />
          </mxGeometry>
        </mxCell>
        <mxCell id="BG8KLU9dc23N2NzaAGb--36" value="" style="endArrow=none;html=1;rounded=0;entryX=0;entryY=0.5;entryDx=0;entryDy=0;" edge="1" parent="1" source="BG8KLU9dc23N2NzaAGb--2" target="BG8KLU9dc23N2NzaAGb--30">
          <mxGeometry width="50" height="50" relative="1" as="geometry">
            <mxPoint x="70" y="543" as="sourcePoint" />
            <mxPoint x="210" y="573" as="targetPoint" />
          </mxGeometry>
        </mxCell>
        <mxCell id="BG8KLU9dc23N2NzaAGb--37" value="Include" style="endArrow=open;endSize=12;dashed=1;html=1;rounded=0;entryX=1;entryY=0.5;entryDx=0;entryDy=0;exitX=0;exitY=0.5;exitDx=0;exitDy=0;" edge="1" parent="1" source="BG8KLU9dc23N2NzaAGb--27" target="BG8KLU9dc23N2NzaAGb--32">
          <mxGeometry width="160" relative="1" as="geometry">
            <mxPoint x="330" y="570" as="sourcePoint" />
            <mxPoint x="490" y="570" as="targetPoint" />
          </mxGeometry>
        </mxCell>
        <mxCell id="BG8KLU9dc23N2NzaAGb--38" value="Include" style="endArrow=open;endSize=12;dashed=1;html=1;rounded=0;entryX=1;entryY=0.5;entryDx=0;entryDy=0;exitX=0;exitY=1;exitDx=0;exitDy=0;" edge="1" parent="1" source="BG8KLU9dc23N2NzaAGb--25" target="BG8KLU9dc23N2NzaAGb--32">
          <mxGeometry width="160" relative="1" as="geometry">
            <mxPoint x="480" y="573" as="sourcePoint" />
            <mxPoint x="270" y="573" as="targetPoint" />
          </mxGeometry>
        </mxCell>
        <mxCell id="BG8KLU9dc23N2NzaAGb--39" value="Include" style="endArrow=open;endSize=12;dashed=1;html=1;rounded=0;entryX=1;entryY=0.5;entryDx=0;entryDy=0;exitX=0;exitY=0.5;exitDx=0;exitDy=0;" edge="1" parent="1" source="BG8KLU9dc23N2NzaAGb--24" target="BG8KLU9dc23N2NzaAGb--32">
          <mxGeometry width="160" relative="1" as="geometry">
            <mxPoint x="492" y="617" as="sourcePoint" />
            <mxPoint x="270" y="573" as="targetPoint" />
          </mxGeometry>
        </mxCell>
        <mxCell id="BG8KLU9dc23N2NzaAGb--40" value="Include" style="endArrow=open;endSize=12;dashed=1;html=1;rounded=0;exitX=0;exitY=0.5;exitDx=0;exitDy=0;" edge="1" parent="1" source="BG8KLU9dc23N2NzaAGb--26">
          <mxGeometry width="160" relative="1" as="geometry">
            <mxPoint x="480" y="515" as="sourcePoint" />
            <mxPoint x="260" y="560" as="targetPoint" />
          </mxGeometry>
        </mxCell>
        <mxCell id="BG8KLU9dc23N2NzaAGb--41" value="Extend" style="endArrow=open;endSize=12;dashed=1;html=1;rounded=0;entryX=1;entryY=0.5;entryDx=0;entryDy=0;exitX=0;exitY=0.5;exitDx=0;exitDy=0;" edge="1" parent="1" source="BG8KLU9dc23N2NzaAGb--25" target="BG8KLU9dc23N2NzaAGb--30">
          <mxGeometry width="160" relative="1" as="geometry">
            <mxPoint x="396" y="367" as="sourcePoint" />
            <mxPoint x="270" y="573" as="targetPoint" />
          </mxGeometry>
        </mxCell>
        <mxCell id="BG8KLU9dc23N2NzaAGb--43" value="Extend" style="endArrow=open;endSize=12;dashed=1;html=1;rounded=0;entryX=1;entryY=0.5;entryDx=0;entryDy=0;exitX=0;exitY=0.5;exitDx=0;exitDy=0;" edge="1" parent="1" source="BG8KLU9dc23N2NzaAGb--28" target="BG8KLU9dc23N2NzaAGb--25">
          <mxGeometry width="160" relative="1" as="geometry">
            <mxPoint x="384" y="385" as="sourcePoint" />
            <mxPoint x="270" y="375" as="targetPoint" />
          </mxGeometry>
        </mxCell>
        <mxCell id="BG8KLU9dc23N2NzaAGb--44" value="Edit &lt;br&gt;Comment" style="ellipse;whiteSpace=wrap;html=1;" vertex="1" parent="1">
          <mxGeometry x="430" y="620" width="90" height="40" as="geometry" />
        </mxCell>
        <mxCell id="BG8KLU9dc23N2NzaAGb--45" value="Delete&lt;br&gt;Comment" style="ellipse;whiteSpace=wrap;html=1;" vertex="1" parent="1">
          <mxGeometry x="420" y="670" width="90" height="40" as="geometry" />
        </mxCell>
        <mxCell id="BG8KLU9dc23N2NzaAGb--46" value="Include" style="endArrow=open;endSize=12;dashed=1;html=1;rounded=0;entryX=1;entryY=1;entryDx=0;entryDy=0;exitX=0;exitY=0.5;exitDx=0;exitDy=0;" edge="1" parent="1" source="BG8KLU9dc23N2NzaAGb--44" target="BG8KLU9dc23N2NzaAGb--32">
          <mxGeometry width="160" relative="1" as="geometry">
            <mxPoint x="480" y="573" as="sourcePoint" />
            <mxPoint x="270" y="573" as="targetPoint" />
          </mxGeometry>
        </mxCell>
        <mxCell id="BG8KLU9dc23N2NzaAGb--47" value="Include" style="endArrow=open;endSize=12;dashed=1;html=1;rounded=0;entryX=0.5;entryY=1;entryDx=0;entryDy=0;exitX=0;exitY=0;exitDx=0;exitDy=0;" edge="1" parent="1" source="BG8KLU9dc23N2NzaAGb--45" target="BG8KLU9dc23N2NzaAGb--32">
          <mxGeometry width="160" relative="1" as="geometry">
            <mxPoint x="440" y="650" as="sourcePoint" />
            <mxPoint x="261" y="588" as="targetPoint" />
          </mxGeometry>
        </mxCell>
        <mxCell id="BG8KLU9dc23N2NzaAGb--48" value="Admin" style="shape=umlActor;verticalLabelPosition=bottom;verticalAlign=top;html=1;" vertex="1" parent="1">
          <mxGeometry x="990" y="500" width="30" height="60" as="geometry" />
        </mxCell>
        <mxCell id="BG8KLU9dc23N2NzaAGb--49" value="Login" style="ellipse;whiteSpace=wrap;html=1;" vertex="1" parent="1">
          <mxGeometry x="820" y="510" width="70" height="40" as="geometry" />
        </mxCell>
        <mxCell id="BG8KLU9dc23N2NzaAGb--50" value="" style="endArrow=none;html=1;rounded=0;exitX=1;exitY=0.5;exitDx=0;exitDy=0;entryX=0.5;entryY=0.5;entryDx=0;entryDy=0;entryPerimeter=0;" edge="1" parent="1" source="BG8KLU9dc23N2NzaAGb--49" target="BG8KLU9dc23N2NzaAGb--48">
          <mxGeometry width="50" height="50" relative="1" as="geometry">
            <mxPoint x="930" y="550" as="sourcePoint" />
            <mxPoint x="980" y="500" as="targetPoint" />
          </mxGeometry>
        </mxCell>
        <mxCell id="BG8KLU9dc23N2NzaAGb--51" value="Include" style="endArrow=open;endSize=12;dashed=1;html=1;rounded=0;exitX=1;exitY=0.5;exitDx=0;exitDy=0;entryX=0;entryY=0.5;entryDx=0;entryDy=0;" edge="1" parent="1" source="BG8KLU9dc23N2NzaAGb--26" target="BG8KLU9dc23N2NzaAGb--49">
          <mxGeometry width="160" relative="1" as="geometry">
            <mxPoint x="480" y="463" as="sourcePoint" />
            <mxPoint x="270" y="570" as="targetPoint" />
          </mxGeometry>
        </mxCell>
        <mxCell id="BG8KLU9dc23N2NzaAGb--52" value="Include" style="endArrow=open;endSize=12;dashed=1;html=1;rounded=0;exitX=1;exitY=0.5;exitDx=0;exitDy=0;entryX=0;entryY=0.5;entryDx=0;entryDy=0;" edge="1" parent="1" source="BG8KLU9dc23N2NzaAGb--27" target="BG8KLU9dc23N2NzaAGb--49">
          <mxGeometry width="160" relative="1" as="geometry">
            <mxPoint x="560" y="463" as="sourcePoint" />
            <mxPoint x="820" y="540" as="targetPoint" />
          </mxGeometry>
        </mxCell>
        <mxCell id="BG8KLU9dc23N2NzaAGb--53" value="Include" style="endArrow=open;endSize=12;dashed=1;html=1;rounded=0;exitX=1;exitY=0.5;exitDx=0;exitDy=0;entryX=0;entryY=1;entryDx=0;entryDy=0;" edge="1" parent="1" source="BG8KLU9dc23N2NzaAGb--44" target="BG8KLU9dc23N2NzaAGb--49">
          <mxGeometry width="160" relative="1" as="geometry">
            <mxPoint x="560" y="573" as="sourcePoint" />
            <mxPoint x="830" y="550" as="targetPoint" />
          </mxGeometry>
        </mxCell>
        <mxCell id="BG8KLU9dc23N2NzaAGb--54" value="Include" style="endArrow=open;endSize=12;dashed=1;html=1;rounded=0;exitX=1;exitY=0.5;exitDx=0;exitDy=0;entryX=0.5;entryY=1;entryDx=0;entryDy=0;" edge="1" parent="1" source="BG8KLU9dc23N2NzaAGb--45" target="BG8KLU9dc23N2NzaAGb--49">
          <mxGeometry width="160" relative="1" as="geometry">
            <mxPoint x="530" y="650" as="sourcePoint" />
            <mxPoint x="840" y="554" as="targetPoint" />
          </mxGeometry>
        </mxCell>
      </root>
    </mxGraphModel>
  </diagram>
</mxfile>
